<?xml version="1.0" encoding="UTF-8" standalone="no"?>
<!-- Created with Inkscape (http://www.inkscape.org/) -->

<svg
   xmlns:dc="http://purl.org/dc/elements/1.1/"
   xmlns:cc="http://creativecommons.org/ns#"
   xmlns:rdf="http://www.w3.org/1999/02/22-rdf-syntax-ns#"
   xmlns:svg="http://www.w3.org/2000/svg"
   xmlns="http://www.w3.org/2000/svg"
   xmlns:sodipodi="http://sodipodi.sourceforge.net/DTD/sodipodi-0.dtd"
   xmlns:inkscape="http://www.inkscape.org/namespaces/inkscape"
   width="64px"
   height="64px"
   id="svg2985"
   version="1.1"
   inkscape:version="0.48.1 r9760"
   sodipodi:docname="pad.svg"
   inkscape:export-filename="/home/alexander/Dropbox/NebtownPython/physbr/models/images/pad.png"
   inkscape:export-xdpi="90"
   inkscape:export-ydpi="90">
  <defs
     id="defs2987" />
  <sodipodi:namedview
     id="base"
     pagecolor="#ffffff"
     bordercolor="#666666"
     borderopacity="1.0"
     inkscape:pageopacity="0.0"
     inkscape:pageshadow="2"
     inkscape:zoom="7.7781746"
     inkscape:cx="22.997177"
     inkscape:cy="18.855119"
     inkscape:current-layer="layer1"
     showgrid="true"
     inkscape:document-units="px"
     inkscape:grid-bbox="true"
     inkscape:window-width="1280"
     inkscape:window-height="776"
     inkscape:window-x="0"
     inkscape:window-y="24"
     inkscape:window-maximized="1" />
  <metadata
     id="metadata2990">
    <rdf:RDF>
      <cc:Work
         rdf:about="">
        <dc:format>image/svg+xml</dc:format>
        <dc:type
           rdf:resource="http://purl.org/dc/dcmitype/StillImage" />
        <dc:title />
      </cc:Work>
    </rdf:RDF>
  </metadata>
  <g
     id="layer1"
     inkscape:label="Layer 1"
     inkscape:groupmode="layer">
    <path
       sodipodi:type="arc"
       style="fill:#ff2328;fill-opacity:1;stroke:none"
       id="path3890"
       sodipodi:cx="128.72728"
       sodipodi:cy="134.54546"
       sodipodi:rx="63.272728"
       sodipodi:ry="29.818182"
       d="m 192.00001,134.54546 a 63.272728,29.818182 0 1 1 -126.545458,0 63.272728,29.818182 0 1 1 126.545458,0 z"
       transform="matrix(0.50143679,0,0,0.29573171,-32.457677,12.301554)" />
    <path
       sodipodi:type="arc"
       style="fill:#237391;fill-opacity:1;stroke:none"
       id="path3825-9"
       sodipodi:cx="7.3636365"
       sodipodi:cy="50"
       sodipodi:rx="27.727272"
       sodipodi:ry="5.6363635"
       d="m 35.090909,50 a 27.727272,5.6363635 0 1 1 -55.454545,0 27.727272,5.6363635 0 1 1 55.454545,0 z"
       transform="matrix(1.0459016,0,0,1.3870967,24.116543,-18.809383)" />
    <path
       sodipodi:type="arc"
       style="fill:#4199c0;fill-opacity:1;stroke:none"
       id="path3825"
       sodipodi:cx="7.3636365"
       sodipodi:cy="50"
       sodipodi:rx="27.727272"
       sodipodi:ry="5.6363635"
       d="m 35.090909,50 a 27.727272,5.6363635 0 1 1 -55.454545,0 27.727272,5.6363635 0 1 1 55.454545,0 z"
       transform="matrix(1.0459016,0,0,1.0645161,24.207452,-4.8621702)" />
    <path
       style="opacity:1;fill:#287896;fill-opacity:1;stroke:none"
       d="M 30.53125 52.75 C 31.729167 52.71875 32.927083 52.6875 34.125 52.65625 C 33.84375 49.40625 33.5625 46.15625 33.28125 42.90625 C 32.729167 42.90625 32.177083 42.90625 31.625 42.90625 C 31.260417 46.1875 30.895833 49.46875 30.53125 52.75 z "
       id="rect3900" />
    <rect
       style="opacity:1;fill:#287896;fill-opacity:1;stroke:none"
       id="rect3904"
       width="48.340389"
       height="1.799908"
       x="7.9710221"
       y="46.643745" />
  </g>
</svg>
